<?xml version="1.0" encoding="UTF-8" standalone="no"?>
<!DOCTYPE svg PUBLIC "-//W3C//DTD SVG 1.1//EN" "http://www.w3.org/Graphics/SVG/1.1/DTD/svg11.dtd">
<svg width="100%" height="100%" viewBox="0 0 16896 2572" version="1.1" xmlns="http://www.w3.org/2000/svg" xmlns:xlink="http://www.w3.org/1999/xlink" xml:space="preserve" xmlns:serif="http://www.serif.com/" style="fill-rule:evenodd;clip-rule:evenodd;stroke-linejoin:round;stroke-miterlimit:2;">
    <g transform="matrix(1,0,0,1,-1605.135848,-5972.19875)">
        <g transform="matrix(4.166667,0,0,4.166667,0,5062.5)">
            <g transform="matrix(1,0,0,1,876.123904,404.5801)">
                <path d="M0,251.699L82.498,251.699C97.263,251.699 109.406,239.327 108.387,223.95C107.469,210.107 95.059,199.802 81.186,199.802L1.026,199.802C-12.685,199.802 -24.821,209.998 -25.868,223.668C-27.056,239.175 -14.855,251.699 0,251.699M80.392,-10.979L2.547,-10.979C-11.638,-10.979 -23.401,0.784 -23.401,14.97C-23.401,29.5 -11.638,40.918 2.547,40.918L80.392,40.918C94.576,40.918 106.341,29.5 106.341,14.97C106.341,0.784 94.576,-10.979 80.392,-10.979M-101.089,-115.822C-37.64,-150.044 57.969,-180.401 123.179,-186.044L125.255,-186.044C166.719,-186.044 200.331,-152.432 200.331,-105.643L200.331,305.727C200.331,334.061 172.993,364.919 139.578,368.973L128.713,370.291C71.911,377.936 -7.953,401.534 -72.261,428.321C-94.881,437.743 -119.7,420.742 -119.7,401.562L-119.7,-79.758C-119.7,-98.014 -112.469,-109.683 -101.089,-115.822" style="fill:rgb(48,108,180);fill-rule:nonzero;"/>
            </g>
        </g>
        <g transform="matrix(4.166667,0,0,4.166667,0,5062.5)">
            <g transform="matrix(1,0,0,1,545.076604,511.3587)">
                <path d="M0,37.725L-39.905,37.725C-54.088,37.725 -65.853,26.307 -65.853,11.777C-65.853,-2.41 -54.088,-14.172 -39.905,-14.172L0,-14.172C14.185,-14.172 25.948,-2.41 25.948,11.777C25.948,26.307 14.185,37.725 0,37.725M40.488,144.712L-42.01,144.712C-56.775,144.712 -68.919,132.34 -67.899,116.963C-66.981,103.12 -54.572,92.815 -40.698,92.815L39.462,92.815C53.172,92.815 65.309,103.011 66.356,116.681C67.544,132.188 55.343,144.712 40.488,144.712M-39.905,-117.966L37.941,-117.966C52.126,-117.966 63.889,-106.204 63.889,-92.017C63.889,-77.487 52.126,-66.069 37.941,-66.069L-39.905,-66.069C-54.088,-66.069 -65.853,-77.487 -65.853,-92.017C-65.853,-106.204 -54.088,-117.966 -39.905,-117.966M141.577,-222.809C78.127,-257.031 -17.481,-287.388 -82.691,-293.031L-84.767,-293.031C-126.231,-293.031 -159.844,-259.419 -159.844,-212.63L-159.844,198.74C-159.844,227.074 -132.506,257.932 -99.09,261.986L-88.226,263.304C-31.423,270.948 48.441,294.547 112.748,321.334C135.369,330.756 160.187,313.754 160.187,294.575L160.187,-186.745C160.187,-205.002 152.957,-216.67 141.577,-222.809" style="fill:rgb(48,108,180);fill-rule:nonzero;"/>
            </g>
        </g>
        <g transform="matrix(4.166667,0,0,4.166667,0,5062.5)">
            <g transform="matrix(0.24,0,0,0.24,938.156204,239.294276)">
                <g transform="matrix(2469.41625,0,0,2469.41625,1243.6025,2048.411765)">
                    <path d="M0.089,-0L0.089,-0.7L0.51,-0.7L0.51,-0.61L0.187,-0.61L0.187,-0.402L0.478,-0.402L0.478,-0.314L0.187,-0.314L0.187,-0.09L0.512,-0.09L0.512,-0L0.089,-0Z" style="fill-rule:nonzero;"/>
                </g>
                <g transform="matrix(2469.41625,0,0,2469.41625,2703.010774,2048.411765)">
                    <rect x="0.066" y="-0.7" width="0.094" height="0.7" style="fill-rule:nonzero;"/>
                </g>
                <g transform="matrix(2469.41625,0,0,2469.41625,3264.064437,2048.411765)">
                    <path d="M0.264,0.012C0.219,0.012 0.179,0.001 0.146,-0.021C0.112,-0.043 0.085,-0.073 0.066,-0.113C0.047,-0.152 0.038,-0.198 0.038,-0.25C0.038,-0.302 0.047,-0.348 0.066,-0.388C0.085,-0.427 0.112,-0.457 0.146,-0.479C0.179,-0.501 0.219,-0.512 0.264,-0.512C0.299,-0.512 0.331,-0.504 0.359,-0.488C0.387,-0.472 0.41,-0.449 0.427,-0.42L0.427,-0.7L0.522,-0.7L0.522,-0L0.432,-0L0.429,-0.081C0.411,-0.052 0.388,-0.029 0.36,-0.013C0.332,0.004 0.3,0.012 0.264,0.012ZM0.286,-0.074C0.313,-0.074 0.338,-0.081 0.359,-0.096C0.38,-0.11 0.396,-0.131 0.408,-0.156C0.421,-0.182 0.427,-0.212 0.427,-0.245L0.427,-0.255C0.427,-0.288 0.421,-0.318 0.408,-0.343C0.396,-0.369 0.38,-0.389 0.358,-0.404C0.337,-0.418 0.313,-0.426 0.285,-0.426C0.256,-0.426 0.23,-0.418 0.207,-0.403C0.184,-0.388 0.167,-0.368 0.154,-0.341C0.141,-0.315 0.135,-0.284 0.135,-0.25C0.135,-0.216 0.141,-0.185 0.154,-0.159C0.167,-0.132 0.185,-0.112 0.208,-0.097C0.231,-0.082 0.257,-0.074 0.286,-0.074Z" style="fill-rule:nonzero;"/>
                </g>
                <g transform="matrix(2469.41625,0,0,2469.41625,4716.839319,2048.411765)">
                    <path d="M0.226,0.012C0.166,0.012 0.12,-0.001 0.087,-0.028C0.054,-0.055 0.038,-0.093 0.038,-0.141C0.038,-0.192 0.055,-0.231 0.089,-0.259C0.124,-0.286 0.171,-0.299 0.233,-0.299L0.367,-0.299C0.363,-0.342 0.352,-0.374 0.333,-0.396C0.315,-0.417 0.287,-0.428 0.251,-0.428C0.225,-0.428 0.202,-0.423 0.183,-0.412C0.165,-0.402 0.149,-0.385 0.136,-0.362L0.052,-0.394C0.064,-0.417 0.079,-0.437 0.097,-0.455C0.115,-0.472 0.136,-0.486 0.162,-0.497C0.187,-0.507 0.217,-0.512 0.251,-0.512C0.298,-0.512 0.338,-0.503 0.369,-0.484C0.4,-0.465 0.424,-0.438 0.439,-0.403C0.455,-0.367 0.462,-0.324 0.462,-0.272L0.461,-0L0.373,-0L0.37,-0.064C0.355,-0.04 0.336,-0.021 0.312,-0.008C0.288,0.005 0.259,0.012 0.226,0.012ZM0.234,-0.069C0.261,-0.069 0.285,-0.075 0.305,-0.087C0.325,-0.098 0.341,-0.114 0.352,-0.135C0.363,-0.156 0.369,-0.18 0.369,-0.208L0.369,-0.224L0.259,-0.224C0.213,-0.224 0.181,-0.217 0.162,-0.203C0.143,-0.188 0.134,-0.169 0.134,-0.143C0.134,-0.12 0.143,-0.102 0.16,-0.089C0.178,-0.076 0.203,-0.069 0.234,-0.069Z" style="fill-rule:nonzero;"/>
                </g>
                <g transform="matrix(2469.41625,0,0,2469.41625,5991.775064,2048.411765)">
                </g>
                <g transform="matrix(2476.50125,0,0,2476.50125,6594.970376,2048.411765)">
                    <path d="M0.384,0.012C0.315,0.012 0.254,-0.004 0.201,-0.035C0.148,-0.066 0.106,-0.108 0.075,-0.163C0.045,-0.217 0.03,-0.279 0.03,-0.35C0.03,-0.421 0.045,-0.483 0.075,-0.537C0.106,-0.592 0.147,-0.634 0.2,-0.665C0.253,-0.697 0.315,-0.712 0.384,-0.712C0.435,-0.712 0.481,-0.703 0.523,-0.685C0.566,-0.667 0.602,-0.643 0.634,-0.611C0.665,-0.579 0.689,-0.542 0.705,-0.5L0.554,-0.449C0.544,-0.472 0.53,-0.493 0.513,-0.51C0.497,-0.528 0.477,-0.541 0.456,-0.55C0.434,-0.56 0.41,-0.564 0.384,-0.564C0.347,-0.564 0.314,-0.555 0.286,-0.537C0.257,-0.519 0.235,-0.494 0.219,-0.462C0.203,-0.429 0.195,-0.392 0.195,-0.35C0.195,-0.308 0.203,-0.271 0.219,-0.239C0.236,-0.206 0.258,-0.181 0.287,-0.163C0.316,-0.144 0.349,-0.135 0.387,-0.135C0.414,-0.135 0.438,-0.14 0.46,-0.15C0.481,-0.16 0.5,-0.174 0.515,-0.192C0.531,-0.21 0.545,-0.23 0.556,-0.254L0.707,-0.203C0.691,-0.161 0.667,-0.123 0.636,-0.091C0.605,-0.058 0.568,-0.033 0.525,-0.015C0.482,0.003 0.435,0.012 0.384,0.012Z" style="fill-rule:nonzero;"/>
                </g>
                <g transform="matrix(2476.50125,0,0,2476.50125,8395.386483,2048.411765)">
                    <path d="M0.29,0.012C0.239,0.012 0.193,0.001 0.153,-0.021C0.113,-0.043 0.082,-0.074 0.059,-0.114C0.036,-0.153 0.025,-0.198 0.025,-0.25C0.025,-0.302 0.036,-0.347 0.059,-0.387C0.082,-0.426 0.114,-0.457 0.154,-0.479C0.194,-0.501 0.24,-0.512 0.292,-0.512C0.34,-0.512 0.383,-0.501 0.421,-0.478C0.459,-0.455 0.489,-0.422 0.512,-0.377C0.534,-0.332 0.545,-0.276 0.545,-0.21L0.187,-0.21C0.19,-0.181 0.202,-0.158 0.222,-0.141C0.242,-0.124 0.267,-0.116 0.295,-0.116C0.32,-0.116 0.34,-0.121 0.357,-0.132C0.374,-0.143 0.386,-0.157 0.393,-0.174L0.53,-0.127C0.517,-0.095 0.499,-0.069 0.475,-0.049C0.45,-0.028 0.422,-0.013 0.391,-0.003C0.359,0.007 0.326,0.012 0.29,0.012ZM0.191,-0.314L0.382,-0.314C0.379,-0.334 0.373,-0.349 0.363,-0.361C0.353,-0.373 0.341,-0.381 0.328,-0.386C0.315,-0.391 0.301,-0.394 0.288,-0.394C0.275,-0.394 0.262,-0.392 0.248,-0.387C0.234,-0.382 0.222,-0.373 0.211,-0.361C0.201,-0.35 0.194,-0.334 0.191,-0.314Z" style="fill-rule:nonzero;"/>
                </g>
                <g transform="matrix(2476.50125,0,0,2476.50125,9782.227183,2048.411765)">
                    <path d="M0.051,-0L0.051,-0.5L0.198,-0.5L0.204,-0.436C0.221,-0.46 0.241,-0.479 0.265,-0.492C0.289,-0.505 0.316,-0.512 0.346,-0.512C0.386,-0.512 0.42,-0.504 0.447,-0.488C0.474,-0.472 0.495,-0.447 0.509,-0.413C0.523,-0.38 0.529,-0.337 0.529,-0.285L0.529,-0L0.373,-0L0.373,-0.256C0.373,-0.283 0.37,-0.304 0.364,-0.319C0.358,-0.335 0.349,-0.346 0.338,-0.354C0.327,-0.361 0.314,-0.365 0.298,-0.366C0.268,-0.367 0.246,-0.359 0.23,-0.342C0.215,-0.324 0.207,-0.299 0.207,-0.264L0.207,-0L0.051,-0Z" style="fill-rule:nonzero;"/>
                </g>
                <g transform="matrix(2476.50125,0,0,2476.50125,11201.756974,2048.411765)">
                    <path d="M0.266,0.012C0.207,0.012 0.163,-0.002 0.134,-0.03C0.104,-0.059 0.09,-0.099 0.09,-0.152L0.09,-0.369L0.012,-0.369L0.012,-0.5L0.09,-0.5L0.09,-0.656L0.246,-0.656L0.246,-0.5L0.36,-0.5L0.36,-0.369L0.246,-0.369L0.246,-0.191C0.246,-0.171 0.249,-0.156 0.257,-0.147C0.264,-0.137 0.276,-0.133 0.291,-0.133C0.297,-0.133 0.304,-0.134 0.312,-0.137C0.32,-0.14 0.327,-0.144 0.334,-0.149L0.388,-0.035C0.372,-0.022 0.353,-0.011 0.331,-0.002C0.308,0.007 0.287,0.012 0.266,0.012Z" style="fill-rule:nonzero;"/>
                </g>
                <g transform="matrix(2476.50125,0,0,2476.50125,12226.036168,2048.411765)">
                    <path d="M0.051,-0L0.051,-0.5L0.207,-0.5L0.207,-0.407C0.228,-0.439 0.254,-0.462 0.286,-0.478C0.318,-0.494 0.35,-0.502 0.384,-0.502L0.384,-0.35C0.353,-0.35 0.324,-0.347 0.297,-0.34C0.27,-0.334 0.248,-0.323 0.232,-0.309C0.215,-0.296 0.207,-0.278 0.207,-0.257L0.207,-0L0.051,-0Z" style="fill-rule:nonzero;"/>
                </g>
                <g transform="matrix(2476.50125,0,0,2476.50125,13211.680793,2048.411765)">
                    <path d="M0.293,0.012C0.24,0.012 0.194,0.001 0.154,-0.022C0.114,-0.044 0.082,-0.075 0.059,-0.114C0.036,-0.153 0.025,-0.199 0.025,-0.25C0.025,-0.301 0.036,-0.347 0.059,-0.386C0.081,-0.425 0.113,-0.456 0.153,-0.479C0.193,-0.501 0.239,-0.512 0.29,-0.512C0.343,-0.512 0.389,-0.501 0.429,-0.479C0.469,-0.456 0.501,-0.425 0.523,-0.386C0.546,-0.347 0.557,-0.301 0.557,-0.25C0.557,-0.199 0.546,-0.153 0.523,-0.114C0.501,-0.075 0.47,-0.044 0.43,-0.022C0.39,0.001 0.344,0.012 0.293,0.012ZM0.293,-0.132C0.313,-0.132 0.331,-0.137 0.347,-0.147C0.363,-0.157 0.375,-0.171 0.384,-0.189C0.393,-0.206 0.397,-0.227 0.397,-0.25C0.397,-0.273 0.393,-0.294 0.384,-0.311C0.375,-0.329 0.362,-0.343 0.346,-0.353C0.33,-0.363 0.312,-0.368 0.291,-0.368C0.27,-0.368 0.252,-0.363 0.236,-0.353C0.22,-0.343 0.208,-0.329 0.199,-0.311C0.19,-0.294 0.185,-0.273 0.185,-0.25C0.185,-0.227 0.19,-0.207 0.199,-0.189C0.208,-0.171 0.22,-0.157 0.237,-0.147C0.253,-0.137 0.272,-0.132 0.293,-0.132Z" style="fill-rule:nonzero;"/>
                </g>
                <g transform="matrix(2476.50125,0,0,2476.50125,14653.4997,2048.411765)">
                </g>
            </g>
        </g>
    </g>
</svg>
